<svg xmlns="http://www.w3.org/2000/svg" viewBox="0 0 64 64" width="64" height="64">
  <!-- Sun -->
  <circle cx="38.5" cy="24" r="12.5" fill="#FFD21F" stroke="#111111" stroke-width="1.8"/>

  <!-- Sun rays -->
  <g fill="none" stroke="#111111" stroke-width="2.2" stroke-linecap="round">
    <path d="M38.5 7V1.5"/>
    <path d="M54.2 14.2l3.8-3.8"/>
    <path d="M58 24h5"/>
    <path d="M22.8 14.2L19 10.4"/>
  </g>

  <!-- Cloud -->
  <path
    d="M12.1 48.4
       C7.5 48.4 4.1 45.0 4.1 40.8
       C4.1 36.8 7.0 33.5 10.9 33.0
       C10.6 32.2 10.4 31.3 10.4 30.3
       C10.4 24.0 15.4 19.0 21.7 19.0
       C26.6 19.0 30.8 22.1 32.3 26.5
       C33.7 25.7 35.3 25.3 37.0 25.3
       C42.2 25.3 46.4 29.0 47.0 33.9
       C47.5 33.8 48.1 33.8 48.7 33.8
       C54.4 33.8 58.9 38.2 58.9 43.8
       C58.9 49.4 54.4 53.8 48.7 53.8
       H12.1
       C7.5 53.8 4.1 51.5 4.1 48.4
       Z"
    fill="#9CCBEE"
    stroke="#111111"
    stroke-width="1.8"
    stroke-linejoin="round"
  />
</svg>
